# xmcd CD database file
# Copyright (C) 1993-1998 Ti Kan
#
# Track frame offsets:
#  183
#  23138
#  44410
#  59478
#  73310
#  91560
#  118243
#  141558
#  166133
#  176243
#  203668
#  222733
#  246800
#  261490
#  281170
#  300058
#  316973
#  332415
#
# Disc length: 4646 seconds
#
# Revision: 1
# Processed by: cddbd v1.4b41PL1 Copyright (c) Steve Scherf et al.
# Submitted via: CDWizzard Release:4.35
#
DISCID=15122412
DTITLE=B.T. Express - Best of the B.T. Express
DYEAR=1900
DGENRE=
TTITLE0=Express
TTITLE1=If It Don't Turn You On
TTITLE2=Once You Get It
TTITLE3=Everything Good To Ya
TTITLE4=Mental Telepathy
TTITLE5=Do It (Til You're Satisfied)
TTITLE6=Do You Like It
TTITLE7=That's What I Want For You Baby
TTITLE8=This House is Smokin'
TTITLE9=Peace Pipe
TTITLE10=Give It What You Got
TTITLE11=Close to You
TTITLE12=Discotizer
TTITLE13=Still Good Still Like It
TTITLE14=You Got it I Want It
TTITLE15=Devil's Workshop
TTITLE16=Happiness
TTITLE17=Whatcha Think About That
EXTD=
EXTT0=
EXTT1=
EXTT2=
EXTT3=
EXTT4=
EXTT5=
EXTT6=
EXTT7=
EXTT8=
EXTT9=
EXTT10=
EXTT11=
EXTT12=
EXTT13=
EXTT14=
EXTT15=
EXTT16=
EXTT17=
PLAYORDER=
